<svg xmlns="http://www.w3.org/2000/svg" width="546" height="52" fill="none"><path fill="#fff" d="m0 20.092 3.477-6.637h.122l-.397 1.766h13.48l.61-1.766h.153v6.637h-.152l-.092-.457c-.61-3.014-1.555-4.08-5.49-4.08h-.823l-5.886 20.58 2.196.609-.03.152H.273l.061-.152 2.562-.61 5.917-20.578h-.823c-3.935 0-5.368 1.126-7.534 4.08l-.335.456H0ZM14.938 36.896l6.039-21.005-1.83-.518v-.152l4.483-1.43h.03l-5.855 20.274h.244l2.104-4.232c2.715-5.48 4.514-8.767 6.436-8.767 1.403 0 2.623 1.766 2.623 5.145 0 7.428-4.21 11.05-7.229 11.05-1.067 0-1.464-.457-1.464-1.065 0-.487.244-.853.336-.974.64.243 1.8.487 2.806.487 2.226 0 3.69-1.31 3.69-6.393 0-4.84-.762-6.484-1.83-6.484-1.128 0-2.41 1.826-5.063 7.153l-3.446 6.91h-2.074ZM30.228 32.482c0-5.815 4.91-11.416 9.028-11.416 1.372 0 1.952.7 1.952 1.553 0 1.765-2.501 4.018-8.601 5.723a13.548 13.548 0 0 0-.336 2.983c0 3.105 1.25 4.323 2.959 4.323 1.494 0 2.867-1.157 4.483-4.445h.244c-1.89 3.927-3.965 6.058-6.252 6.058-2.043 0-3.477-1.644-3.477-4.78Zm2.47-4.475c5.002-1.4 6.68-3.349 6.68-4.871 0-.913-.58-1.37-1.525-1.37-2.074 0-4.27 2.74-5.155 6.24ZM41.208 51.006v-.33l4.615-1.326V5.498l-4.615-1.325v-.331h18.197c10.747 0 16.22 4.703 16.22 12.454 0 9.009-7.253 12.983-15.89 12.983-2.242 0-3.56-.265-4.154-.398v-.53c.725.133 1.78.266 3.098.266 7.055 0 11.473-3.776 11.473-11.725 0-8.48-5.011-12.321-12.066-12.321H50.9v44.78l5.274 1.324v.331H41.208ZM78.616 51.006v-.33l4.615-1.326V5.498l-4.615-1.325v-.331h14.308v.331l-4.616 1.325v19.74h26.373V5.498l-4.615-1.325v-.331h14.307v.331l-4.615 1.325V49.35l4.615 1.325v.331h-14.307v-.33l4.615-1.326V26.033H88.308V49.35l4.615 1.325v.331H78.617ZM151.826 52c-13.582 0-23.802-8.744-23.802-23.913 0-15.435 10.483-25.239 24.791-25.239 13.582 0 23.735 8.877 23.735 23.98 0 15.5-10.417 25.172-24.724 25.172Zm-18.198-26.1c0 16.296 9.033 25.173 19.78 25.173 9.296 0 17.538-6.69 17.538-22.192 0-16.229-9.099-25.105-19.846-25.105-9.296 0-17.472 6.69-17.472 22.125ZM190.471 51.006v-.33l5.736-1.326V4.57h-1.912c-9.495 0-12.264 2.385-15.297 8.877l-.461.994h-.33L181.965 0h.33l.264 3.842h32.372L215.195 0h.33l3.758 14.44h-.33l-.461-.993c-3.033-6.492-5.802-8.876-15.297-8.876h-1.912v44.78l5.737 1.324v.331h-16.549ZM244.736 52c-13.582 0-23.802-8.744-23.802-23.913 0-15.435 10.483-25.239 24.791-25.239 13.582 0 23.735 8.877 23.735 23.98 0 15.5-10.417 25.172-24.724 25.172Zm-18.198-26.1c0 16.296 9.033 25.173 19.78 25.173 9.297 0 17.538-6.69 17.538-22.192 0-16.229-9.099-25.105-19.846-25.105-9.296 0-17.472 6.69-17.472 22.125ZM300.221 52c-16.483 0-25.846-8.611-25.846-23.715 0-15.964 10.681-25.37 25.648-25.37 4.747 0 9.296 1.06 11.406 1.59L311.693 0h.33l3.098 14.44h-.329c-2.967-6.358-9.033-10.598-17.077-10.532-9.626.067-17.472 6.095-17.472 21.794 0 16.428 7.912 25.503 19.648 25.503 4.088 0 7.78-1.258 9.758-2.385V33.121l-7.648-1.325v-.331h17.34v.331l-4.747 1.325v15.302h3.231v.331C312.286 50.476 306.946 52 300.221 52ZM357.626 51.404c-2.571 0-4.087-1.921-7.318-8.214l-8.242-16.097H330.66V49.35l4.615 1.325v.331h-14.307v-.33l4.615-1.326V5.498l-4.615-1.325v-.331h18.197c10.747 0 15.758 4.57 15.758 10.798 0 6.16-4.747 9.472-9.824 10.797v.066l10.615 17.29c3.165 5.1 4.747 6.16 6.923 6.16 1.055 0 2.044-.331 3.033-.663v.464l-2.044.861c-2.373.994-4.219 1.789-6 1.789ZM330.66 26.298h8.439c6.132 0 10.484-4.372 10.484-10.864 0-6.756-4.484-10.863-10.484-10.863h-8.439v21.727Z"/><path fill="#fff" d="M364.633 51.006v-.33l3.296-1.326 18.395-46.502h.066l19.582 46.502 3.297 1.325v.331h-13.45v-.33l4.615-1.326-7.451-17.885h-17.01c-5.736 15.302-4.351 17.687 2.044 19.011l.989.2v.33h-14.373Zm11.604-20.336h16.417l-8.505-20.402-7.121 18.349-.791 2.053ZM409.629 51.006v-.33l4.615-1.326V5.498l-4.615-1.325v-.331h18.197c10.747 0 16.219 4.703 16.219 12.454 0 9.009-7.252 12.983-15.889 12.983-2.242 0-3.561-.265-4.154-.398v-.53c.725.133 1.78.266 3.099.266 7.055 0 11.472-3.776 11.472-11.725 0-8.48-5.011-12.321-12.066-12.321h-7.186v44.78l5.274 1.324v.331h-14.966ZM447.038 51.006v-.33l4.615-1.326V5.498l-4.615-1.325v-.331h14.307v.331l-4.616 1.325v19.74h26.373V5.498l-4.615-1.325v-.331h14.307v.331l-4.615 1.325V49.35l4.615 1.325v.331h-14.307v-.33l4.615-1.326V26.033h-26.373V49.35l4.616 1.325v.331h-14.307ZM506.203 51.006v-.33l5.67-1.326V28.153L496.116 5.498l-3.297-1.325v-.331h13.978v.331l-4.616 1.325 14.44 21.131 3.494-4.835c10.483-14.574 9.362-16.495 3.428-17.488l-.791-.133v-.331h13.45v.331l-3.296 1.325-15.956 22.059V49.35l5.67 1.325v.331h-16.417ZM541.027 40.366c2.86 0 4.973 2.161 4.973 5.444 0 3.116-2.337 5.942-5.328 5.942-2.861 0-4.974-2.203-4.974-5.506 0-3.054 2.337-5.88 5.329-5.88Zm-4.992 5.88c0 3.054 1.944 5.132 4.637 5.132 2.804 0 5.01-2.597 5.01-5.568 0-3.096-1.944-5.09-4.655-5.09-2.824 0-4.992 2.617-4.992 5.526Zm1.495 2.742.019-.124.524-.166 1.402-5.465-.43-.166v-.104h2.262c1.758 0 2.375.561 2.375 1.101 0 .645-.879.977-1.646 1.143v.02l.262.957c.43 1.6.654 1.973 1.01 1.973.187 0 .318-.104.598-.54h.112c-.505.81-1.103 1.475-1.795 1.475-.691 0-.897-.872-1.084-2.535l-.056-.477h-.786l-.691 2.617.43.167-.019.124h-2.487Zm2.824-3.116h.355c.841 0 1.365-.686 1.365-1.538 0-.748-.374-1.184-.879-1.184h-.15l-.691 2.722Z"/></svg>