<svg xmlns="http://www.w3.org/2000/svg" width="430" height="40" fill="none"><path fill="#fff" d="m0 15.455 2.738-5.105h.096l-.312 1.359h10.617l.48-1.359h.12v5.105h-.12l-.072-.351c-.48-2.318-1.225-3.138-4.324-3.138h-.648l-4.636 15.83 1.73.468-.025.117H.216l.048-.117 2.018-.468 4.66-15.83h-.649c-3.098 0-4.227.867-5.933 3.138l-.264.351H0ZM11.764 28.381l4.756-16.157-1.44-.398v-.117l3.53-1.101h.024l-4.612 15.596h.192l1.658-3.255c2.137-4.215 3.555-6.744 5.068-6.744 1.105 0 2.065 1.358 2.065 3.957 0 5.714-3.314 8.5-5.692 8.5-.84 0-1.153-.35-1.153-.82 0-.374.192-.655.264-.748.505.187 1.417.374 2.21.374 1.753 0 2.906-1.007 2.906-4.917 0-3.724-.6-4.988-1.44-4.988-.89 0-1.898 1.405-3.988 5.503l-2.714 5.315h-1.633ZM23.806 24.986c0-4.473 3.867-8.781 7.11-8.781 1.08 0 1.537.538 1.537 1.194 0 1.358-1.97 3.09-6.774 4.402a10.193 10.193 0 0 0-.264 2.295c0 2.389.985 3.325 2.33 3.325 1.177 0 2.258-.89 3.53-3.419h.193c-1.49 3.021-3.122 4.66-4.924 4.66-1.61 0-2.738-1.264-2.738-3.676Zm1.945-3.442c3.94-1.078 5.26-2.576 5.26-3.747 0-.703-.456-1.054-1.2-1.054-1.634 0-3.363 2.108-4.06 4.8ZM32.453 39.236v-.255l3.634-1.02V4.23L32.453 3.21v-.255h14.331c8.464 0 12.773 3.618 12.773 9.58 0 6.93-5.711 9.987-12.513 9.987-1.766 0-2.804-.203-3.272-.305v-.408c.572.102 1.402.204 2.44.204 5.557 0 9.036-2.905 9.036-9.02 0-6.522-3.947-9.477-9.502-9.477h-5.66v34.446l4.154 1.019v.255H32.453ZM61.914 39.236v-.255l3.635-1.02V4.23L61.914 3.21v-.255H73.18v.255l-3.634 1.02v15.184h20.77V4.229L86.682 3.21v-.255h11.267v.255l-3.634 1.02v33.732l3.635 1.019v.255H86.681v-.255l3.635-1.02V20.027h-20.77v17.936l3.635 1.019v.255H61.913ZM119.57 40c-10.697 0-18.745-6.726-18.745-18.395 0-11.873 8.256-19.414 19.523-19.414 10.697 0 18.693 6.828 18.693 18.446C139.041 32.56 130.837 40 119.57 40Zm-14.332-20.076c0 12.535 7.114 19.363 15.578 19.363 7.321 0 13.812-5.147 13.812-17.07 0-12.485-7.166-19.313-15.63-19.313-7.321 0-13.76 5.147-13.76 17.02ZM150.004 39.236v-.255l4.518-1.02V3.517h-1.506c-7.477 0-9.658 1.834-12.047 6.828l-.363.764h-.26L143.306 0h.26l.207 2.955h25.495L169.476 0h.26l2.959 11.108h-.259l-.364-.764c-2.388-4.994-4.569-6.828-12.046-6.828h-1.506v34.446l4.517 1.019v.255h-13.033ZM192.741 40c-10.697 0-18.745-6.726-18.745-18.395 0-11.873 8.256-19.414 19.523-19.414 10.697 0 18.693 6.828 18.693 18.446 0 11.923-8.204 19.363-19.471 19.363Zm-14.332-20.076c0 12.535 7.114 19.363 15.578 19.363 7.321 0 13.812-5.147 13.812-17.07 0-12.485-7.166-19.313-15.63-19.313-7.321 0-13.76 5.147-13.76 17.02ZM236.438 40c-12.982 0-20.355-6.624-20.355-18.242 0-12.28 8.412-19.516 20.199-19.516 3.738 0 7.321.815 8.983 1.223L245.472 0h.26l2.44 11.108h-.259c-2.337-4.891-7.114-8.153-13.449-8.102-7.581.051-13.76 4.688-13.76 16.765 0 12.637 6.231 19.617 15.474 19.617 3.219 0 6.127-.968 7.685-1.834V25.478l-6.024-1.02v-.254h13.657v.255l-3.739 1.019v11.77h2.544v.255C245.94 38.828 241.734 40 236.438 40ZM281.647 39.541c-2.025 0-3.219-1.477-5.763-6.318l-6.491-12.382h-8.983v17.12l3.635 1.02v.255h-11.268v-.255l3.635-1.02V4.23l-3.635-1.019v-.255h14.331c8.464 0 12.41 3.516 12.41 8.306 0 4.739-3.738 7.287-7.736 8.306v.05l8.359 13.3c2.493 3.924 3.739 4.74 5.452 4.74.831 0 1.61-.256 2.389-.51v.356l-1.61.663c-1.869.764-3.323 1.375-4.725 1.375ZM260.41 20.23h6.646c4.829 0 8.256-3.363 8.256-8.356 0-5.198-3.53-8.357-8.256-8.357h-6.646v16.713Z"/><path fill="#fff" d="M287.165 39.236v-.255l2.596-1.02 14.487-35.77h.052l15.422 35.77 2.596 1.02v.255h-10.593v-.255l3.635-1.02-5.867-13.757h-13.397c-4.517 11.77-3.427 13.605 1.61 14.624l.779.153v.255h-11.32Zm9.139-15.644h12.929l-6.698-15.694-5.608 14.115-.623 1.58ZM322.601 39.236v-.255l3.635-1.02V4.23l-3.635-1.019v-.255h14.332c8.463 0 12.773 3.618 12.773 9.58 0 6.93-5.712 9.987-12.514 9.987-1.765 0-2.804-.203-3.271-.305v-.408a13.98 13.98 0 0 0 2.44.204c5.556 0 9.035-2.905 9.035-9.02 0-6.522-3.946-9.477-9.502-9.477h-5.66v34.446l4.154 1.019v.255h-11.787ZM352.063 39.236v-.255l3.634-1.02V4.23l-3.634-1.019v-.255h11.267v.255l-3.635 1.02v15.184h20.77V4.229l-3.634-1.019v-.255h11.267v.255l-3.635 1.02v33.732l3.635 1.019v.255h-11.267v-.255l3.634-1.02V20.027h-20.77v17.936l3.635 1.019v.255h-11.267ZM398.658 39.236v-.255l4.466-1.02V21.657L390.714 4.23l-2.596-1.019v-.255h11.008v.255l-3.635 1.02 11.371 16.254 2.752-3.72c8.256-11.21 7.374-12.688 2.7-13.452l-.623-.102v-.255h10.593v.255l-2.596 1.02-12.566 16.968v16.764l4.466 1.019v.255h-12.93ZM426.083 31.051c2.253 0 3.917 1.662 3.917 4.187 0 2.397-1.841 4.57-4.196 4.57-2.253 0-3.917-1.693-3.917-4.234 0-2.35 1.84-4.523 4.196-4.523Zm-3.931 4.523c0 2.35 1.531 3.947 3.652 3.947 2.208 0 3.946-1.998 3.946-4.283 0-2.381-1.532-3.915-3.667-3.915-2.223 0-3.931 2.013-3.931 4.25Zm1.178 2.11.015-.096.412-.128 1.104-4.204-.338-.127v-.08h1.781c1.384 0 1.87.431 1.87.847 0 .495-.692.75-1.296.879v.016l.207.735c.338 1.23.515 1.518.795 1.518.147 0 .25-.08.471-.415h.088c-.397.623-.868 1.134-1.413 1.134s-.707-.671-.854-1.95l-.045-.367h-.618l-.545 2.014.339.127-.015.096h-1.958Zm2.223-2.398h.28c.663 0 1.075-.527 1.075-1.183 0-.575-.295-.91-.692-.91h-.118l-.545 2.093Z"/></svg>