<svg xmlns="http://www.w3.org/2000/svg" width="24" height="24" fill="none"><path fill="#fff" fill-rule="evenodd" d="M16.196 17.99a7.81 7.81 0 0 1-4.868 1.666c-2.328-.001-4.298-.807-5.91-2.42C3.806 15.626 3 13.656 3 11.328 3 9 3.806 7.03 5.418 5.418S9 3 11.328 3c2.327 0 4.297.806 5.909 2.418s2.418 3.582 2.418 5.91a7.81 7.81 0 0 1-1.666 4.868L21 19.206 19.206 21l-3.01-3.01Zm-.785-2.579c-1.121 1.121-2.482 1.682-4.084 1.682-1.601 0-2.962-.561-4.083-1.682s-1.682-2.482-1.682-4.084c0-1.601.56-2.962 1.682-4.083 1.12-1.121 2.482-1.682 4.083-1.682 1.602 0 2.963.56 4.084 1.682 1.121 1.12 1.682 2.482 1.682 4.083 0 1.602-.561 2.963-1.682 4.084Z" clip-rule="evenodd"/></svg>