<svg xmlns="http://www.w3.org/2000/svg" width="16" height="16" fill="none"><path fill="gray" d="M7.556 12h.888V7.111h-.888V12ZM8 5.846a.53.53 0 0 0 .39-.157.53.53 0 0 0 .157-.39.53.53 0 0 0-.157-.39.53.53 0 0 0-.39-.157.53.53 0 0 0-.39.157.53.53 0 0 0-.157.39.53.53 0 0 0 .157.39.53.53 0 0 0 .39.157ZM8.003 16a7.796 7.796 0 0 1-3.12-.63 8.085 8.085 0 0 1-2.542-1.71 8.073 8.073 0 0 1-1.71-2.538A7.78 7.78 0 0 1 0 8.002c0-1.105.21-2.145.63-3.12.42-.973.99-1.82 1.71-2.54A8.072 8.072 0 0 1 4.877.63 7.78 7.78 0 0 1 7.998 0c1.105 0 2.145.21 3.12.63.973.42 1.82.99 2.54 1.71.721.719 1.291 1.565 1.712 2.538.42.973.63 2.013.63 3.12 0 1.105-.21 2.145-.63 3.12-.42.973-.99 1.82-1.71 2.54a8.074 8.074 0 0 1-2.538 1.712 7.78 7.78 0 0 1-3.12.63ZM8 15.111c1.985 0 3.667-.689 5.044-2.067 1.378-1.377 2.067-3.059 2.067-5.044 0-1.985-.689-3.667-2.067-5.044C11.667 1.578 9.985.889 8 .889c-1.985 0-3.667.689-5.044 2.067C1.578 4.333.889 6.015.889 8c0 1.985.689 3.667 2.067 5.044C4.333 14.422 6.015 15.111 8 15.111Z"/></svg>