<svg xmlns="http://www.w3.org/2000/svg" width="16" height="16" fill="none"><path fill="gray" d="M15.2 16c-1.801 0-3.607-.415-5.418-1.244-1.811-.83-3.48-2.007-5.005-3.533-1.513-1.526-2.687-3.2-3.523-5.021C.418 4.38 0 2.579 0 .8V0h4.439l.848 4.083-2.696 2.51c.456.79.928 1.513 1.417 2.166.488.655.997 1.244 1.527 1.77.534.56 1.137 1.084 1.808 1.57s1.437.966 2.296 1.44l2.611-2.708 3.75.755V16h-.8ZM2.121 5.654l2.092-1.92L3.635 1H1.006c.019.763.121 1.531.307 2.305.186.774.456 1.557.808 2.349Zm8.45 8.335c.616.308 1.312.55 2.09.722.777.174 1.557.266 2.339.277v-2.604l-2.389-.475-2.04 2.08Z"/></svg>