<svg xmlns="http://www.w3.org/2000/svg" width="16" height="16" fill="none"><path fill="gray" d="M8 7.256c-.943 0-1.75-.356-2.421-1.066-.672-.71-1.008-1.565-1.008-2.562 0-.998.336-1.852 1.008-2.562C6.25.356 7.057 0 8 0c.943 0 1.75.355 2.421 1.066.672.71 1.008 1.564 1.008 2.562 0 .997-.336 1.852-1.008 2.562C9.75 6.9 8.943 7.256 8 7.256ZM0 16v-1.99c0-.5.137-.967.412-1.402a2.821 2.821 0 0 1 1.109-1.013 15.656 15.656 0 0 1 3.237-1.231c1.08-.274 2.16-.41 3.242-.41 1.081 0 2.162.136 3.242.41 1.08.273 2.159.684 3.237 1.231.465.24.834.578 1.109 1.013.275.435.412.902.412 1.401V16H0Zm1.143-1.21h13.714v-.78c0-.269-.082-.521-.245-.757a2.002 2.002 0 0 0-.678-.597c-.94-.482-1.91-.852-2.91-1.108a12.117 12.117 0 0 0-6.049 0c-.999.256-1.968.626-2.909 1.108a2.003 2.003 0 0 0-.678.597 1.302 1.302 0 0 0-.245.756v.782ZM8 6.047c.629 0 1.167-.236 1.614-.71a2.398 2.398 0 0 0 .672-1.708c0-.665-.224-1.235-.672-1.708-.447-.474-.985-.71-1.614-.71-.629 0-1.167.236-1.614.71a2.399 2.399 0 0 0-.672 1.708c0 .665.224 1.234.672 1.708.447.474.985.71 1.614.71Z"/></svg>